<svg width="256" height="256" viewBox="0 0 120 120" xmlns="http://www.w3.org/2000/svg" role="img" aria-labelledby="logoTitle logoDesc">
  <title id="logoTitle">DSPex Professional Logo</title>
  <desc id="logoDesc">A professional logo for DSPex, an Elixir-based orchestrator for DSPy. The logo is a dark hexagon containing a stylized, glowing cyan 'conductor' core. A sleek, purple serpent, representing a high-performance Python (Snakepit/DSPy) process, elegantly coils around the conductor, symbolizing that the core is orchestrating the powerful tool. The design conveys themes of control, power, and intelligence.</desc>

  <defs>
    <!-- Background gradient for the hexagon -->
    <linearGradient id="hexagonGradient" x1="0%" y1="0%" x2="100%" y2="100%">
      <stop offset="0%" style="stop-color:#1a1a2e; stop-opacity:1" />
      <stop offset="100%" style="stop-color:#16213e; stop-opacity:1" />
    </linearGradient>

    <!-- Gradient for the serpent's body -->
    <linearGradient id="serpentGradient" x1="0%" y1="0%" x2="100%" y2="100%">
      <stop offset="0%" style="stop-color:#8A2BE2; stop-opacity:1" />
      <stop offset="100%" style="stop-color:#4B0082; stop-opacity:1" />
    </linearGradient>

    <!-- Glowing effect for the central conductor -->
    <filter id="conductorGlow" x="-50%" y="-50%" width="200%" height="200%">
      <feGaussianBlur stdDeviation="3" result="coloredBlur"/>
      <feMerge>
        <feMergeNode in="coloredBlur"/>
        <feMergeNode in="SourceGraphic"/>
      </feMerge>
    </filter>
  </defs>

  <!-- Hexagon Background -->
  <path d="M60 5 L110 32.5 V 87.5 L60 115 L10 87.5 V 32.5 Z" fill="url(#hexagonGradient)" stroke="#0F3460" stroke-width="2"/>

  <!-- Serpent Coiling around the Conductor -->
  <g>
    <!-- Serpent Body -->
    <path d="M 45,25 C 10,30 10,90 45,95 L 75,95 C 110,90 110,30 75,25 L 45,25 Z" fill="url(#serpentGradient)" stroke="#E94560" stroke-width="0" />
    <path d="M 78,35 C 95,40 95,80 78,85" stroke="#9F70FD" stroke-width="5" fill="none" stroke-linecap="round"/>
    <path d="M 42,35 C 25,40 25,80 42,85" stroke="#9F70FD" stroke-width="5" fill="none" stroke-linecap="round"/>
    <!-- Serpent Head -->
    <path d="M 75,25 C 80,20 80,15 75,10 L 68,10" stroke="url(#serpentGradient)" stroke-width="5" fill="none" stroke-linecap="round" stroke-linejoin="round"/>
    <!-- Serpent Tail -->
     <path d="M 45,95 C 40,100 40,105 45,110 L 52,110" stroke="url(#serpentGradient)" stroke-width="5" fill="none" stroke-linecap="round" stroke-linejoin="round"/>
  </g>

  <!-- Central Conductor (Stylized Eye/Core) -->
  <g filter="url(#conductorGlow)">
    <path d="M60,40 L80,60 L60,80 L40,60 Z" fill="#00E5FF" stroke="#A6F6FF" stroke-width="1.5"/>
    <circle cx="60" cy="60" r="8" fill="#E1F7F5"/>
  </g>

</svg>